<?xml version="1.0" encoding="UTF-8" standalone="no"?>
<svg
   xmlns:dc="http://purl.org/dc/elements/1.1/"
   xmlns:cc="http://creativecommons.org/ns#"
   xmlns:rdf="http://www.w3.org/1999/02/22-rdf-syntax-ns#"
   xmlns:svg="http://www.w3.org/2000/svg"
   xmlns="http://www.w3.org/2000/svg"
   xmlns:sodipodi="http://sodipodi.sourceforge.net/DTD/sodipodi-0.dtd"
   xmlns:inkscape="http://www.inkscape.org/namespaces/inkscape"
   version="1.1"
   width="16"
   height="16"
   id="svg2"
   inkscape:version="0.91 r13725"
   sodipodi:docname="clojure_scaled.svg">
  <sodipodi:namedview
     pagecolor="#ffffff"
     bordercolor="#666666"
     borderopacity="1"
     objecttolerance="10"
     gridtolerance="10"
     guidetolerance="10"
     inkscape:pageopacity="0"
     inkscape:pageshadow="2"
     inkscape:window-width="1145"
     inkscape:window-height="794"
     id="namedview3394"
     showgrid="false"
     inkscape:zoom="18.55"
     inkscape:cx="9.1343339"
     inkscape:cy="14.63585"
     inkscape:window-x="0"
     inkscape:window-y="0"
     inkscape:window-maximized="0"
     inkscape:current-layer="svg2" />
  <metadata
     id="metadata4">
    <rdf:RDF>
      <cc:Work
         rdf:about="">
        <dc:format>image/svg+xml</dc:format>
        <dc:type
           rdf:resource="http://purl.org/dc/dcmitype/StillImage" />
        <dc:title></dc:title>
      </cc:Work>
    </rdf:RDF>
  </metadata>
  <defs
     id="defs6" />
  <path
     d="M 127.999,0 C 57.423,0 0,57.423 0,128.001 0,198.585 57.423,256.005 127.999,256.005 198.577,256.005 256,198.585 256,128.001 256,57.423 198.577,0 127.999,0"
     id="path8"
     style="fill:#ffffff"
     inkscape:connector-curvature="0" />
  <g
     id="g3415"
     transform="matrix(0.06606777,0,0,0.06514014,-1.1068269,-0.88735445)">
    <path
       inkscape:connector-curvature="0"
       style="fill:#91dc47"
       id="path10"
       d="m 133.45106,138.37128 c -1.05328,2.315 -2.21554,4.91612 -3.41902,7.68445 -4.25432,9.7765 -8.96566,21.67291 -10.68662,29.29419 -0.61822,2.71445 -1.00107,6.07826 -0.99374,9.80808 0,1.4752 0.0778,3.02566 0.2015,4.60491 6.01465,2.24161 12.51107,3.47435 19.29507,3.48643 6.17585,-0.0121 12.10899,-1.04695 17.66204,-2.91976 -1.30515,-1.21045 -2.55076,-2.50079 -3.68463,-3.95463 -7.52862,-9.73748 -11.7289,-24.00834 -18.3746,-48.00367" />
    <path
       inkscape:connector-curvature="0"
       style="fill:#91dc47"
       id="path12"
       d="m 105.6556,89.99231 c -14.378567,10.27814 -23.787513,27.23001 -23.823232,46.44114 0.03572,18.92407 9.161655,35.65671 23.178452,45.97758 3.43825,-14.52633 12.05678,-27.82734 24.98092,-54.48882 -0.76752,-2.13849 -1.64219,-4.4795 -2.62128,-6.93849 -3.58022,-9.10949 -8.74768,-19.68862 -13.35919,-24.479321 -2.35109,-2.502648 -5.20409,-4.665294 -8.35567,-6.512089" />
    <path
       inkscape:connector-curvature="0"
       style="fill:#63b132"
       id="path14"
       d="m 186.64233,201.60079 c -7.41871,-0.94291 -13.54144,-2.0809 -18.89757,-3.99736 -9.00871,4.53709 -19.15403,7.10013 -29.89651,7.10013 -37.17051,0 -67.302405,-30.55759 -67.306984,-68.27011 0,-20.46246 8.887804,-38.805924 22.94856,-51.316382 C 89.729178,84.195529 85.807334,83.657654 81.801227,83.665086 62.05279,83.853667 41.2062,94.939083 32.527219,124.87704 c -0.81148,4.35781 -0.618227,7.65287 -0.618227,11.55827 0,59.34733 47.4349,107.45969 105.942008,107.45969 35.83148,0 67.48466,-18.05827 86.65334,-45.67659 -10.36788,2.62062 -20.33827,3.87381 -28.87621,3.90075 -3.20012,0 -6.20424,-0.17372 -8.9858,-0.51837" />
    <path
       inkscape:connector-curvature="0"
       style="fill:#90b4fe"
       id="path16"
       d="m 166.73453,180.77883 c 0.65394,0.32885 2.13677,0.8658 4.20027,1.45941 13.88216,-10.33666 22.90368,-26.98662 22.9394,-45.80479 l -0.005,0 c -0.0522,-31.3723 -25.08259,-56.756438 -56.02046,-56.818679 -6.14929,0.01208 -12.05679,1.041377 -17.58785,2.900248 11.37445,13.150519 16.84415,31.943611 22.13525,52.500821 0.003,0.009 0.007,0.0167 0.009,0.0241 0.0101,0.0167 1.69256,5.70853 4.58128,13.26014 2.86857,7.54139 6.95528,16.87755 11.412,23.68134 2.92627,4.55939 6.14471,7.83587 8.33644,8.79736" />
    <path
       inkscape:connector-curvature="0"
       style="fill:#5881d8"
       id="path18"
       d="m 137.851,28.973753 c -35.48528,0 -66.874686,17.718272 -86.101066,44.88604 10.006107,-6.356022 20.222869,-8.648724 29.139066,-8.566974 12.315068,0.03623 21.99695,3.909111 26.64235,6.558538 1.12196,0.655854 2.18714,1.361872 3.23034,2.087398 8.28882,-3.702879 17.44772,-5.773557 27.08656,-5.773557 37.17509,0.0046 67.31156,30.56223 67.31706,68.268252 l -0.006,0 c 0,19.01047 -7.66601,36.19923 -20.02412,48.57684 3.03343,0.34465 6.26836,0.55924 9.57197,0.54252 11.73348,0.006 24.41582,-2.62063 33.92368,-10.73148 6.19967,-5.29699 11.39369,-13.05297 14.27416,-24.68184 0.56327,-4.49158 0.8875,-9.05747 0.8875,-13.70418 0,-59.344555 -47.43032,-107.461557 -105.942,-107.461557" />
  </g>
</svg>
